<svg xmlns="http://www.w3.org/2000/svg" version="1.1" xmlns:xlink="http://www.w3.org/1999/xlink" xmlns:svgjs="http://svgjs.dev/svgjs" width="1440" height="560" preserveAspectRatio="none" viewBox="0 0 1440 560"><g mask="url(&quot;#SvgjsMask1093&quot;)" fill="none"><g transform="translate(0, 0)" stroke-linecap="round"><path d="M550 270.6 L550 289.4" stroke-width="15" stroke="rgba(157, 157, 157, 1)"></path><path d="M570 222.01 L570 337.99" stroke-width="15" stroke="rgba(157, 157, 157, 1)"></path><path d="M590 257.63 L590 302.37" stroke-width="15" stroke="rgba(157, 157, 157, 1)"></path><path d="M610 249.72 L610 310.29" stroke-width="15" stroke="rgba(229, 229, 229, 1)"></path><path d="M630 270.57 L630 289.43" stroke-width="15" stroke="rgba(157, 157, 157, 1)"></path><path d="M650 233.53 L650 326.47" stroke-width="15" stroke="rgba(229, 229, 229, 1)"></path><path d="M670 229.33 L670 330.67" stroke-width="15" stroke="rgba(157, 157, 157, 1)"></path><path d="M690 243.94 L690 316.06" stroke-width="15" stroke="rgba(157, 157, 157, 1)"></path><path d="M710 244.44 L710 315.56" stroke-width="15" stroke="rgba(229, 229, 229, 1)"></path><path d="M730 260.94 L730 299.06" stroke-width="15" stroke="rgba(157, 157, 157, 1)"></path><path d="M750 254.71 L750 305.29" stroke-width="15" stroke="rgba(157, 157, 157, 1)"></path><path d="M770 246.25 L770 313.75" stroke-width="15" stroke="rgba(157, 157, 157, 1)"></path><path d="M790 268.08 L790 291.92" stroke-width="15" stroke="rgba(229, 229, 229, 1)"></path><path d="M810 248.37 L810 311.63" stroke-width="15" stroke="rgba(157, 157, 157, 1)"></path><path d="M830 262.55 L830 297.45" stroke-width="15" stroke="rgba(157, 157, 157, 1)"></path><path d="M850 229.48 L850 330.52" stroke-width="15" stroke="rgba(157, 157, 157, 1)"></path><path d="M870 266.75 L870 293.25" stroke-width="15" stroke="rgba(229, 229, 229, 1)"></path><path d="M890 223.95 L890 336.05" stroke-width="15" stroke="rgba(229, 229, 229, 1)"></path></g></g><defs><mask id="SvgjsMask1093"><rect width="1440" height="560" fill="#ffffff"></rect></mask></defs></svg>