<svg xmlns="http://www.w3.org/2000/svg" version="1.1" xmlns:xlink="http://www.w3.org/1999/xlink" xmlns:svgjs="http://svgjs.dev/svgjs" width="2500" height="560" preserveAspectRatio="none" viewBox="0 0 2500 560"><g mask="url(&quot;#SvgjsMask1032&quot;)" fill="none"><rect width="2500" height="560" x="0" y="0" fill="rgba(39, 39, 39, 1)"></rect><path d="M0,593.278C120.324,587.101,255.762,619.953,350.973,546.124C445.445,472.869,429.61,327.59,481.516,219.901C534.968,109.006,653.952,28.074,659.94,-94.885C666.222,-223.891,617.697,-368.426,513.91,-445.305C411.474,-521.184,263.285,-444.194,140.779,-479.449C19.331,-514.399,-66.665,-674.344,-190.255,-647.95C-311.871,-621.978,-360.77,-471.914,-416.072,-360.529C-461.203,-269.63,-470.496,-169.923,-477.847,-68.704C-484.707,25.75,-472.191,115.354,-457.426,208.899C-437.085,337.77,-474.804,499.456,-374.921,583.389C-277.23,665.479,-127.434,599.82,0,593.278" fill="#1e1e1e"></path><path d="M2500 1791.793C2727.69 1782.011 2833.776 1500.663 3021.246 1371.074 3199.9120000000003 1247.571 3458.448 1234.547 3573.051 1050.046 3690.4539999999997 861.038 3672.352 615.697 3625.567 398.168 3580.7200000000003 189.651 3464.483 6.006999999999948 3315.648-146.76300000000003 3172.794-293.394 2993.8-395.11 2797.185-452.12 2601.052-508.991 2396.082-517.643 2197.256-471.0519999999999 1990.4189999999999-422.58399999999995 1757.975-361.04100000000005 1643.848-181.86 1531.2759999999998-5.1200000000000045 1616.733 224.122 1621.0349999999999 433.624 1624.5900000000001 606.732 1612.0990000000002 776.221 1666.895 940.466 1726.542 1119.252 1817.3339999999998 1282.4279999999999 1949.155 1417.132 2107.679 1579.123 2273.557 1801.521 2500 1791.793" fill="#303030"></path></g><defs><mask id="SvgjsMask1032"><rect width="2500" height="560" fill="#ffffff"></rect></mask></defs></svg>